<svg id="Layer_1" data-name="Layer 1" xmlns="http://www.w3.org/2000/svg" width="326" height="326" viewBox="0 0 326 326"><defs><style>.cls-1{fill:#fff;}.cls-2,.cls-3,.cls-4{fill:none;stroke-width:20.54px;}.cls-2{stroke:#000;}.cls-3{stroke:#716667;}.cls-4{stroke:#78a22f;}.cls-5{fill:#78a22f;}</style></defs><title>sl-logo</title><path class="cls-1" d="M305,175.94c0,78.26-61.39,119.81-139.66,119.81S21.57,254.2,21.57,175.94a141.71,141.71,0,0,1,283.42,0Z"/><path class="cls-2" d="M229,45.19c55.92,19.68,82.29,64.73,82.29,128.83,0,81.78-67.23,123.61-149,123.61-36.06,0-66-14.21-94.4-24.23C38,262.89,15.12,219.75,15.12,174,15.12,92.24,85.46,29.4,167.24,29.4,184.92,29.4,213.58,39.76,229,45.19Z"/><path class="cls-3" d="M118.81,284C71,279.63,29.62,229.92,29.62,178.09c0-29,16.06-59.2,29-82.87,21.1-38.68,67.67-47.19,106-52.07,73.93-9.42,128.72,60.12,128.72,134.65,0,16.3,2,40-3.31,54.44-10.91,29.81-35.81,38.69-63.13,46.76"/><path class="cls-4" d="M109.06,282.61A119.11,119.11,0,0,1,45.44,177.18c0-25.61,13.55-44.3,24.94-65.2,18.63-34.14,54-53.92,94.19-53.92A119.13,119.13,0,0,1,283.7,177.18c0,14.39-3.75,35-8.42,47.81-9.63,26.31-27.09,41.42-51,55.3"/><path class="cls-5" d="M173.53,260.16q0,16-11.57,25.57t-29.69,9.58c-8.14,0-17.1.06-25.87-2.88s-16-8.63-22.75-14L94,261.38c13,9.82,26.72,13.51,38.93,13.51q8,0,12.63-3.68a11.49,11.49,0,0,0,4.63-9.37q0-8.41-22.31-15.16c-1.13-.42-2-.7-2.53-.84q-34.95-9.47-34.94-31.57,0-15.59,12.1-25T134,180q19.36,0,36.62,11.36l-8.84,17.47a52.76,52.76,0,0,0-29.68-9q-8.41,0-13.68,3.06a9.91,9.91,0,0,0-5.26,9.15q0,5.48,5.47,8a53,53,0,0,0,10.63,3.58q6.84,1.68,12.11,3.37c3.5,1.12,6.91,2.39,10.2,3.79a65.52,65.52,0,0,1,10.64,5.89Q173.53,244.15,173.53,260.16Z"/><path class="cls-5" d="M235.21,285.62q-8.43,9.69-23.58,9.69t-24.31-9.05q-9.15-9.06-9.16-26.74v-113h23.58v110.3c0,11.23,4.88,20.13,12.63,16.84,6.9-2.94,8.42-1.76,10.52-5.27Z"/></svg>