<svg id="Layer_1" data-name="Layer 1" xmlns="http://www.w3.org/2000/svg" width="900" height="824" viewBox="0 0 900 824"><defs><style>.cls-1,.cls-2,.cls-3,.cls-4{fill:#fff;}.cls-1{opacity:0.75;}.cls-2{opacity:0;}.cls-3{opacity:0.9;}.cls-4{opacity:0.8;}</style></defs><title>logo</title><path class="cls-1" d="M837.12,455c0-221.62-162.93-428.43-382.78-400.41C340.43,69.1,201.93,94.39,139.18,209.43c-38.39,70.39-86.13,160.18-86.13,246.46,0,136.89,97.1,268.82,218.45,305.65A360.46,360.46,0,0,1,97.36,452.19c0-77.39,40.52-133.88,74.63-197C227.72,152,333.57,92.23,453.79,92.23c196.85,0,356.43,161.16,356.43,360,0,43.48-11.2,105.86-25.19,144.45-26.27,72.53-72,116.88-134.19,155.95,76.75-23.22,145.52-51.17,176.45-135.68C843,573.9,837.12,503.47,837.12,455Z"/><path class="cls-2" d="M453.79,92.23C333.57,92.23,227.72,152,172,255.17c-34.1,63.14-74.63,119.63-74.63,197,0,113,54,216.41,133.54,281.22l-.32.53c16.59,13.14,34.3,27,55.07,35.73.69.36,1.36.75,2,1.1l.12-.23c2,.8,4,1.57,6.1,2.26,24.41,8.19,49.37,8,72,8q50.39,0,82.63-26.67T480.82,683q0-44.53-31.65-65.63a183.94,183.94,0,0,0-29.6-16.41q-13.77-5.85-28.42-10.55T357.46,581q-19.05-4.69-29.6-10-15.24-7-15.24-22.27,0-17,14.65-25.49t38.09-8.5q44.53,0,82.63,25.2l24.61-48.64q-48.06-31.65-102-31.65T283,485.76q-33.71,26.08-33.7,69.45,0,61.53,97.28,87.9a73,73,0,0,1,7,2.35q62.11,18.76,62.11,42.19,0,15.83-12.89,26.09T367.71,724c-31.83,0-67.22-9-101.43-32.62-69.47-56.64-114-144-114-242.09,0-66.47,34.28-115,63.13-169.22,47.15-88.63,136.7-139.95,238.41-139.95,166.53,0,301.55,138.42,301.55,309.17,0,37.34-9.48,90.92-21.31,124.06-24.22,67.89-68,107-128,142.89a121.63,121.63,0,0,0-11.48,4.24c-21.57,9.18-35.16-15.62-35.16-46.88V366.51H493.71V681.2q0,49.24,25.49,74.43t67.69,25.21q42.19,0,65.64-27l-.22-.38C713.42,714.38,759.08,668.27,785,596.64c14-38.58,25.19-101,25.19-144.45C810.21,253.39,650.63,92.23,453.79,92.23Z"/><path class="cls-1" d="M531.74,765.81l-104.5,2.13q-5,2.44-10.27,4.43c38.89.2,83.56-.14,122.8-1.86A81.91,81.91,0,0,1,531.74,765.81Z"/><path class="cls-3" d="M648.32,55.83C601.82,39.47,515.45,8.27,462.16,8.27,215.64,8.27,3.64,197.66,3.64,444.17,3.64,582,72.59,712,162.65,743.74c85.69,30.17,175.86,73,284.54,73,246.52,0,449.17-126.08,449.17-372.6C896.36,251,816.88,115.17,648.32,55.83ZM656.13,751c-1.28.83-2.53,1.69-3.83,2.51l.22.38q-23.45,27-65.64,27-27,0-47.12-10.32c-39.24,1.72-83.9,2.06-122.79,1.86q-22.63,8.46-51,8.46c-22.66,0-47.62.17-72-8-2.07-.7-4.09-1.46-6.1-2.26l-.12.23c-.69-.35-1.36-.74-2-1.1A148.28,148.28,0,0,1,267,760.13c-119.26-38.67-214-169-214-304.25,0-86.28,47.74-176.07,86.13-246.46C201.93,94.39,340.43,69.1,454.34,54.59,674.19,26.57,837.12,233.38,837.12,455c0,48.47,5.92,118.9-9.83,161.91C797.07,699.47,730.74,728.05,656.13,751Z"/><path class="cls-4" d="M519.21,755.63q-25.49-25.19-25.49-74.43V366.51h65.63V673.58c0,31.27,13.6,56.06,35.16,46.88A121.63,121.63,0,0,1,606,716.23c60-35.86,103.81-75,128-142.89,11.83-33.14,21.31-86.72,21.31-124.06,0-170.75-135-309.17-301.55-309.17-101.7,0-191.26,51.32-238.41,139.95-28.85,54.23-63.13,102.75-63.13,169.22,0,98.08,44.57,185.45,114,242.09C300.5,715,335.88,724,367.71,724q22.27,0,35.16-10.25t12.89-26.09q0-23.42-62.11-42.19a73,73,0,0,0-7-2.35q-97.29-26.37-97.28-87.9,0-43.37,33.7-69.45t87.61-26.08q53.91,0,102,31.65L448,540q-38.1-25.18-82.63-25.2-23.45,0-38.09,8.5t-14.65,25.49q0,15.25,15.24,22.27,10.55,5.27,29.6,10t33.69,9.37q14.64,4.7,28.42,10.55a183.94,183.94,0,0,1,29.6,16.41q31.64,21.1,31.65,65.63t-32.23,71.2a108,108,0,0,1-21.34,13.77l104.5-2.13A83,83,0,0,1,519.21,755.63Z"/></svg>