<svg id="Layer_1" data-name="Layer 1" xmlns="http://www.w3.org/2000/svg" xmlns:xlink="http://www.w3.org/1999/xlink" width="527" height="579" viewBox="0 0 527 579"><defs><style>.cls-1{fill:url(#linear-gradient);}.cls-2{fill:url(#linear-gradient-2);}.cls-3{fill:url(#linear-gradient-3);}.cls-4{fill:url(#linear-gradient-4);}.cls-5{fill:url(#linear-gradient-5);}.cls-6{fill:url(#linear-gradient-6);}.cls-7{fill:url(#linear-gradient-7);}.cls-8{fill:url(#linear-gradient-8);}.cls-9{fill:url(#linear-gradient-9);}.cls-10{fill:url(#linear-gradient-10);}.cls-11{fill:url(#linear-gradient-11);}.cls-12{fill:url(#linear-gradient-12);}.cls-13{fill:#090707;}.cls-14{fill:#fad5c8;}.cls-15{fill:#93895c;}.cls-16{fill:#388189;}.cls-17{fill:#fff;}</style><linearGradient id="linear-gradient" x1="231.18" y1="53.94" x2="7.85" y2="371.94" gradientUnits="userSpaceOnUse"><stop offset="0" stop-color="#77434f"/><stop offset="1" stop-color="#d9c1bb"/></linearGradient><linearGradient id="linear-gradient-2" x1="265.98" y1="78.38" x2="42.65" y2="396.38" xlink:href="#linear-gradient"/><linearGradient id="linear-gradient-3" x1="257.51" y1="72.43" x2="34.17" y2="390.43" xlink:href="#linear-gradient"/><linearGradient id="linear-gradient-4" x1="502.12" y1="244.22" x2="278.79" y2="562.22" xlink:href="#linear-gradient"/><linearGradient id="linear-gradient-5" x1="446.52" y1="205.17" x2="223.19" y2="523.17" xlink:href="#linear-gradient"/><linearGradient id="linear-gradient-6" x1="348.42" y1="136.28" x2="125.09" y2="454.28" xlink:href="#linear-gradient"/><linearGradient id="linear-gradient-7" x1="416.85" y1="184.33" x2="193.51" y2="502.33" xlink:href="#linear-gradient"/><linearGradient id="linear-gradient-8" x1="269.58" y1="80.91" x2="46.25" y2="398.91" xlink:href="#linear-gradient"/><linearGradient id="linear-gradient-9" x1="274.52" y1="84.38" x2="51.18" y2="402.38" xlink:href="#linear-gradient"/><linearGradient id="linear-gradient-10" x1="266.35" y1="78.64" x2="43.02" y2="396.64" xlink:href="#linear-gradient"/><linearGradient id="linear-gradient-11" x1="283.76" y1="90.87" x2="60.43" y2="408.87" xlink:href="#linear-gradient"/><linearGradient id="linear-gradient-12" x1="269.77" y1="81.04" x2="46.44" y2="399.04" xlink:href="#linear-gradient"/></defs><title>face</title><path class="cls-1" d="M47.63,316.67c-.5.77-1.17,2-2,1.06s.68-1.32,1.18-1.94Z"/><path class="cls-2" d="M43.09,394a2.49,2.49,0,0,1,.63,2.6A2.83,2.83,0,0,1,43.09,394Z"/><path class="cls-3" d="M40.5,380.08a2.19,2.19,0,0,1,.34,2.2C40.73,381.55,40.61,380.81,40.5,380.08Z"/><path class="cls-4" d="M424.64,355.61c-.27.58-.71,1.49-1.27,1.12-.91-.6-.23-1.38.35-2Z"/><path class="cls-5" d="M421.35,239.7c.24-.2.46-.52.71-.55a.91.91,0,0,1,.74.4c.1.39.21,1.07-.63.71A5.19,5.19,0,0,1,421.35,239.7Z"/><path class="cls-6" d="M471.74,282.45c-8.19-18.09-16.19-36.18-20.37-55.66-2.75-17.47-2.81-35.2-5.26-52.69-.21-1.48-.24-3-.5-4.46-2-11.79-4.18-23.58-7.86-35-4.75-14.71-9.42-29.56-19.08-42-11.19-14.45-30.56-17.28-43.1-6.27-1,.88-2.11,2.32-4.35,1.27,1.76-3.4,3.79-6.41,7.09-8.49,9.4-5.92,19.29-4.68,29.54-1.58-10.1-21.58-61.25-48.47-84-43.84,16.93,11.87,26.1,28.46,32.4,47.12,3.31-7.66.74-15-.41-23.59,4.79,5.86,4.43,12.34,6.88,17.87,12.87-12.67,19.69-14.79,27.48-8-7.62-1.1-13.86.71-18.57,6.07a52.43,52.43,0,0,0-11.85,21.54c-.85,3.3-1.85,6.66-4.52,9.65-1.57-11.1-3.47-21.7-7.43-31.83-8.87-22.67-24.1-38.32-48.36-44-17.55-4.14-35-2.1-52.4,1.09-2.19.41-4.52,1.71-7.18-.18,14.58-6.88,29.83-8,45.19-8.84a102.08,102.08,0,0,0-44.78,1.12c-19.83,4.73-36.78,14.94-52.41,27.63-11.61,9.42-22.6,19.65-31.06,32-14.43,21-23,44.68-29,69.34-4,16.59-6.33,33.48-8.42,50.4a288.63,288.63,0,0,1,11.36-80.15c-8.49,12.4-14.27,26-18.71,40.08-7.09,22.52-16.85,43.33-35.44,58.89C67.88,227,58.5,233.62,50.75,241.92c-10.09,10.83-18.59,22.88-24.14,36.75-.89,2.23-2.14,4.61-1.24,7.61A9.92,9.92,0,0,0,29,281.61c3.74-8.41,8.89-15.88,14.57-23.08C54,245.29,67.26,235.88,82.43,228.84c3.14-1.46,3.61-.78,2.82,2.22-.83,3.2-1.45,6.46-2.42,9.62-5.63,18.25-16.72,33.81-25.13,50.69-4,8-9.2,15.43-10.92,24.42.28.29.56.59.85.88,4.92-5.42,8.3-11.92,12.48-17.86,17.07-24.26,33.35-49,42-77.78,2.78,2.66-.59,5.36,0,8A154.12,154.12,0,0,1,95,250.29c-8.17,18.8-20.16,35.27-31.7,52-9.06,13.14-18,26.36-24,41.23-1.85,4.51-3,9.13-2.49,14.11,1.83-2.59,3-5.48,4.69-8,1.32-1.94,1.28-5.15,4.46-5.57C42.2,353,39.81,362.24,40.24,372c.08,2.68.17,5.37.26,8.05a2.19,2.19,0,0,1,.34,2.2A37.54,37.54,0,0,0,43.09,394a2.49,2.49,0,0,1,.63,2.6c1.51,8.72,5.1,16.7,9,24.55,5.17,10.53,10.83,20.75,10.62,33.11-.07,4.27-5.32,15.41-5.93,16.08,0,.77-3.84,2.86.68,2.87.66-.06,4.31.05,5.07-1.15,4.76.33,3.93,4.26,4,6.95.2,11.23-4.15,19.88-14.9,24.64-1.94.86-4.63,1.3-4.68,4.43,11,.23,21.1-2,29.1-10.58,2.51,17.79-4.18,31.2-20.46,42.48a12.36,12.36,0,0,0,3.19-.2c12.67-4.64,21.77-13.85,30-24.43,1.09,2.07.24,3.21-.38,4.32a55.82,55.82,0,0,1-17.14,19.05c-7.72,5.36-16.68,8-25.08,11.91-4.41,2-9.34,3.76-10.73,9.37h5c-1-1.93.81-2,1.71-2.42,4.9-2.43,10.15-3.71,15.5-4.84,13-2.74,24.33-9,35.52-18.35-.41,9.79,2.92,17.71,6.27,25.61,3.33,0,9.27,4.94,12.61,4.94-.33-3.14-3.44-11.21-3.56-14.35-.67-18.33,10.5-34,27-42.5.43-.22,1.15.13,2.69.35-5.61,4.34-10.36,8.42-14.31,13.29a48,48,0,0,0-9.24,16.92c-2.31,8.08-2.11,14.5.52,17.93,1.13-1.24,1-2.79,1.24-4.24a38.36,38.36,0,0,1,7-16.83c9.72-13.4,23.17-21,39-24.16,10.87-2.14,19.8-6.51,25.44-16.16,5.09-8.69,1.21-18.67-7.66-20.92-2.28-.58-3.38,0-2.42,2.32,1.42,3.53-.05,6.27-1.89,9.63-1.4-11.55-4.95-14.8-14.44-13.16a116.72,116.72,0,0,1-37.2.89c-8.43-1.25-16.71-3.26-25.34-7.77,2.85,0,4.71-.41,6.3.06,16.91,5,34.14,4.67,51.37,2.69,5.63-.65,11.23-1.41,16.83-.89,15.37,1.44,25.22,12.11,19.78,26.61-.4,1.05-1.32,2.45-.11,3.14s2.39-.35,3.45-1.31c9.11-8.15,11.56-18.12,8.79-29.85-1.25-5.3-3.83-8.46-9.1-10.46-7.75-2.94-14.56-7.67-21.12-14.2,6.75,0,10.08,6.16,17.09,5.92-14-14.56-20.88-31.43-21.94-51,.58.48,1.08.7,1.2,1,.45,1.23.78,2.51,1.12,3.78,3.45,13.1,8.26,25.61,17,36.19,5.53,6.7,11.74,12.65,21.23,15a20.09,20.09,0,0,0-1.27-2.42,30.7,30.7,0,0,0-2.24-2.6c-8.69-9.12-13.56-19.75-14.07-32.56-.53-13.66,1.86-26.93,4-40.28,3.48-23.25,3.58-46.69,3.59-70.14,2,5,1.8,10.12,2.16,15.21,1.61,23.27.21,46.38-3.11,69.47-1.5,10.46-3.2,21.07-1.23,31.71.53,2.88.15,6.33,3.55,8.3.59-5.37-.73-10.46-.16-15.66,2.09-19,4.21-37.93,7.22-56.82s3.65-38.08,3.22-57.25c-.52-23.49.14-46.91,4.43-70.1,2.26-6.66,3.13-13.65,5.46-20.34a145.44,145.44,0,0,1,17.51-35.15c13.1-19,30.12-33.7,52-41.93,7.05-2.65,13.88-6.42,22.11-6.39-.51.57-.67.89-.92,1-1.53.62-3.11,1.15-4.64,1.79-15.07,6.22-30,12.63-42.13,24-2.86.36-2.6,2.28-2.46,2.45s2.26,1,3.3-1.4c14.64-8.64,30.37-14.86,46.32-20.53,14.45-5.14,28.93-8.88,44.51-4.2,13.64,4.09,26.06,10.06,35.53,20.79,13.81,15.65,20,34.65,21.88,55A73.19,73.19,0,0,0,424.31,233c2.77,6.6,7,12.4,11.51,19.6-5.7-3.8-8.16-8.89-12.84-11.75,1.54,7.33,5.41,13.53,8.84,19.87,10.89,20.1,12.73,40.71,4.79,62.33-3.94,10.73-10.52,20.35-12.89,31.7l.92.86c4.87-8.66,9.88-17.25,14.6-26a85.25,85.25,0,0,0,10.53-45.05c-.32-6.92-.67-6.94,5.43-4.91,2.66.89,4.1,1,3.32-2.67-.61-2.91-.46-6-.74-10.23C462.68,273.05,465.74,279,471.74,282.45ZM46,344c-.65-.45-.41-1,.06-1.41a.93.93,0,0,1,.76,0A1,1,0,0,1,46,344ZM68.09,402.1c-1.32-5.64-2.19-11.4-3.27-17.1a2.93,2.93,0,0,1-.06-4c-.06-.76-.13-1.51-.19-2.26V356.64C59.62,361.05,55.74,369.91,54,379l-.27,1.52A2.47,2.47,0,0,1,53.2,383c-.6,1.95-1.26,3.88-1,6,.61.12,1.35.31,1.2,1-.08.41-.81.68-1.25,1-.1,2.06-.21,4.13-.32,6.31-1.55-.83-.52-2.34-1.11-3.33l-.4-1.67a73.06,73.06,0,0,1,1.15-19.63c3.37-15.17,10.79-28.19,21.63-41.05-2.32,15-4.28,28.54-3.36,42.31h0c.13,6.37-.3,12.78,1.4,19a4.09,4.09,0,0,1,.28.7c0,.08-.16.21-.24.31,3,22,10.92,41.47,28.24,56.26.92.79,2.31,1.38,2.14,3C82.13,441.64,73,423.22,68.09,402.1Zm94.25-297.6a176.52,176.52,0,0,0-10.44,42.26c-1.41,12.06-1.1,24.14-1.42,36.32-4.66-13.07-8.34-26.36-9.72-40.4.7.16,1.12.12,1.27.3,1.15,1.36,1.88,4,3.7,3.57s1.11-3.06,1.46-4.79C151.52,120,158.31,99.21,172,81.26c1-1.36,1.77-3.24,4-3.21C171.33,86.83,165.88,95.14,162.34,104.5Zm13.72-26.56c-.09-2.06,1-3.21,2.86-3.84C178.16,75.52,177.72,77.19,176.06,77.94Zm3-4a.88.88,0,0,1,.87-.8ZM183,69h0l.13-.08Zm68.57,31.09a71.12,71.12,0,0,1,32.68-16.84c12.39-2.69,24.32-.37,36.3,2.58-13.13-9.53-28.17-9.59-43.9-8.76,25.09-9.09,59.49.63,66.87,31.23C315.18,79.86,284.06,82.52,251.55,100.07Zm151.53,33.22c-1.07.84-1.44-.23-1.78-.84-7.27-12.91-18.53-17.87-33.11-16.3,4-7.19,15.85-11.44,31-10.86-6,1.74-10.95,2.51-15.33,4.95-.67.38-1.57,1-1.68,1.59-.27,1.45,1.18,1.29,2,1.52,9.39,2.51,15.25,8.78,19,17.44C403.72,131.88,404,132.54,403.08,133.29Z"/><path class="cls-7" d="M210.38,461.31c-2.81.67-.74,3.12-.37,4.45,3.26,11.83,1,22.16-7.36,31.32-2.05,2.25-5.27,3.47-6.32,6.71,4,1.08,6.75-1.32,9.55-3.33,11.57-8.29,12.47-24.38,9.67-36.29C215,461.64,212.26,460.86,210.38,461.31Z"/><path class="cls-8" d="M52.19,391l.05-2c.61.12,1.35.31,1.2,1C53.36,390.41,52.63,390.68,52.19,391Z"/><path class="cls-9" d="M64.76,381l.06,4A2.93,2.93,0,0,1,64.76,381Z"/><path class="cls-10" d="M53.2,383a2.3,2.3,0,0,1,.57-2.47A2.47,2.47,0,0,1,53.2,383Z"/><path class="cls-11" d="M71.22,394l0-1a4.09,4.09,0,0,1,.28.7C71.48,393.77,71.3,393.9,71.22,394Z"/><path class="cls-12" d="M50.36,392.33l.4,1.67Z"/><path class="cls-13" d="M37.5,560.72c-1-1.94,4.31-2.7,5.21-3.14,4.9-2.43,10.15-3.71,15.5-4.84,13-2.74,24.33-9,35.52-18.35-.41,9.79,2.57,18.69,21,31.33C106.4,567.26,90,553.93,90,544.8,84.33,548.28,46.5,560.72,37.5,560.72Z"/><path class="cls-13" d="M511,322l.62.44c-.61.28-.72,0-.53-.51Z"/><path class="cls-14" d="M337.54,238.21c11.61-4.89,23.07-9.34,35.45-10.31,4.82-.38,9.67-.53,14.09,2.08.86.51,1.89,1.1,2.64,0s-.18-1.84-.87-2.54c-5.3-5.31-11.63-8.85-19.18-8-12.74,1.35-25.4,3.48-37.66,7.44-.95.31-1.89.64-2.81,1-3.13,1.25-6.44,2.48-7,6.38s3.37,4.37,5.29,6.37l-13.11,4.12c-.32.1-.71.38-.94.28-6.27-2.6-8.78,2.57-12.76,5.56-7.68,5.76-18.54,3.83-25.2-3.48-1.66-1.82-3.35-4.05-6.28-1.89-1.2.88-2.26-.07-3.3-.38-4.6-1.37-9.17-2.87-13.77-4.32,0-.28,0-.83.11-.89,2.43-.93,5.46-1.39,5.47-4.79s-2.66-5.19-5.52-6.39a86.69,86.69,0,0,0-20.18-5.5c-3.44-.55-4.47-1.42-3.48-5.38,8.25-33,30.95-52.6,60.6-65.8a331,331,0,0,1,42.17-15.39,38.31,38.31,0,0,1,17.73-.83c31,5.41,50,24.39,56.87,56.52a171.31,171.31,0,0,1,3.7,38.24c-.33,26.61,1.35,53.41-3.9,79.72-3.77,18.92-9.59,37.46-12.88,56.45-3.74,21.56-15.57,37.44-31.37,51.24a309.22,309.22,0,0,1-37.13,27.89c-22.11,14.1-45.07,14.54-67.41.77a301.76,301.76,0,0,1-41.06-30.95c-3.23-2.85-4.24-5.77-4.09-9.93.4-11.21,2.51-22.16,4.18-33.19a438.4,438.4,0,0,0,4.6-46.73c.09-2-.15-3.88,3.15-3.47,28.43,3.47,41.93-10.88,52.56-35.48,1.25-2.9,2.3-5.89,3.4-8.85,2.13-5.7,5.69-8.77,10.25-8.79s8.29,3,10.33,8.68c2.65,7.36,5.45,14.63,9.62,21.33,12.36,19.85,27.2,26.62,50.25,22.78,20-3.33,30.9-14,35.9-34.54,1.87-7.73,1.67-16.18,6.08-23,3.06-4.73,3.25-9.47,3.3-14.64,0-3.8-1.35-5.64-5.07-6.68-17.67-4.94-35.56-7.09-53.87-5.13C343.51,238,340.52,238.05,337.54,238.21Zm-45.9,159.58a95.68,95.68,0,0,0,9.93-1.49c18-4.28,32.65-14.56,46.24-26.58,1.62-1.43,3.68-3,1.93-5.4-1.59-2.21-3.57-.68-5.37.06q-54.39,22.2-108.79,0c-1.78-.72-3.73-2.33-5.37-.09-1.78,2.46.32,3.95,1.9,5.4a125.89,125.89,0,0,0,32.55,22A64.8,64.8,0,0,0,291.64,397.79Zm-1.71,19.67a44.09,44.09,0,0,0,20.67-5c1.74-.91,4-1.84,2.93-4.38-1.25-2.85-3.4-1.69-5.45-.68-12,5.93-24,5.89-36,.08-2-1-4.18-2.32-5.51.48s1.36,3.75,3.19,4.68A44.15,44.15,0,0,0,289.93,417.46Zm-.53-65.06A14.85,14.85,0,0,0,300,348.8c2-1.73,4-3.48,7-3.13,1.95.23,3.42-.69,3.49-2.63.08-2.24-1.63-3-3.67-3.16-3.56-.25-6.4,1.43-9.1,3.43-6.58,4.85-8.82,4.85-15.42,0-3-2.19-6.15-4-10.1-3.32a3,3,0,0,0-2.81,3,2.5,2.5,0,0,0,2.88,2.71c3.41-.51,5.68,1.37,8,3.3A14.39,14.39,0,0,0,289.4,352.4Zm.26,16.85a22.62,22.62,0,0,0,9.69-1.67,2.75,2.75,0,0,0,1.79-3.59,2.53,2.53,0,0,0-3.55-1.71,21.12,21.12,0,0,1-15,0,2.61,2.61,0,0,0-3.67,1.53c-.69,1.89.25,3.19,2,3.89A22.84,22.84,0,0,0,289.66,369.25Zm-26.74-35.76c.21-2.05,1.49-4.71-1.66-5.38-3.38-.71-3.62,2.38-4,4.53-.93,5.44.36,10.27,4.84,13.88,1.47,1.19,3.09,2.28,4.82.44s.7-3.39-.91-4.58C262.93,340.09,262.35,337,262.92,333.49ZM323,335.1a13.37,13.37,0,0,0-.3-2.73c-.59-2-.7-4.79-3.76-4.31-3.24.52-2.22,3.12-1.89,5.2.58,3.7,0,6.93-3.27,9.31-1.46,1-2.36,2.49-.89,4.23,1.61,1.9,3.26,1.07,4.81-.13C321.39,343.8,323,340,323,335.1Z"/><path class="cls-14" d="M368.09,271.75c4.66,3.61,4.68,3.6,5.75-1.68a3.54,3.54,0,0,1,.92,0c2,.55,2.09,4.38,4.26,3.38s-.12-5,.11-5.06c2.68-1.12,2.63-4.47,4.88-5.69,1.88-1,3.88-1.78,6.56-3,1.33,16.63,1.8,32.82-9.62,46.17-11.72,13.7-40.17,15.59-54.67,3.75-12.16-9.93-18.69-23-18.86-39,0-2.28-1.2-4.56-1.16-6.83.08-4.89,6.25-11.82,11.16-13,.16,0,.39-.24.44-.19,5.45,4.49,8.24-1.47,12.13-3.07,1-.41,2.17-1.62,2.85.12.54,1.4-1.06,1.45-1.82,1.85a45,45,0,0,0-12.63,9.66c-1.88,2.08-2.61,3.82,1.48,3.72,2.64-.06,4.4,2.27,6.84,2.82,1.13.26,2.51.61,3-.89.4-1.31-.8-1.55-1.77-1.82-1.82-.51-3.8-1.22-3.77-3.37,0-1.87,2.08-2.4,3.53-3.14a34,34,0,0,1,10.9-3.6C335.11,265.15,341,271.8,356,271.28c2.38-.09,4.64.08,5.8,2C364.94,278.5,366.61,276.6,368.09,271.75Z"/><path class="cls-14" d="M241.5,252.9a33,33,0,0,1,11.79,4c1.26.69,3,1.14,2.84,3-.17,1.69-1.63,2.43-3.07,2.94-1.16.41-3.08.3-2.27,2.22.69,1.6,2.29.76,3.53.36,2.48-.8,4.43-2.65,7.4-2.64,2.54,0,1.61-2,.5-3.1-2.09-2.08-4.35-4-7-6.41,4.65-1,7.94-3.81,11.84-.09,3.23,3.08,6.39,6.06,6.72,10.65.27,3.74-.55,7.59-1.09,11.23-1.78,11.87-6.39,22.71-15.11,31.41C248,316,236.34,318.29,223.47,317c-2.32-.24-2.58-1.41-2.57-3.32.06-13,.09-26,0-39,0-2.78.66-3.77,3.69-3.41a29,29,0,0,0,8.34-.53C240.68,269.35,244.09,262.39,241.5,252.9Z"/><path class="cls-14" d="M418.55,319.61c1.15-7.22,2.11-14.44,3.54-21.56.71-3.54,3.63-6.28,4.43-9.91,1.25-5.67,2.07-11.31-.48-17.31C436.9,278.4,431.8,309.5,418.55,319.61Z"/><path class="cls-15" d="M231.4,252.29c5.7,0,8.15,2,8.12,6.8a8.85,8.85,0,0,1-8.67,8.52,8.69,8.69,0,0,1-8.56-8.55C222.25,253.82,224.28,252.31,231.4,252.29Zm1.8,6.5a2.31,2.31,0,0,0-2.77-2.16c-1.51.14-2.52,1-2.39,2.58s1.29,2.25,2.78,2.16A2.31,2.31,0,0,0,233.2,258.79Z"/><path class="cls-15" d="M349.53,252.31c6.46.05,8.37,1.67,8.24,7a8.51,8.51,0,0,1-8.7,8.29,8.71,8.71,0,0,1-8.4-8.71C340.83,254,343.19,252.25,349.53,252.31Zm-.43,9.08c1.53.06,2.64-.62,2.78-2.16a2.26,2.26,0,0,0-2.35-2.59c-1.5-.12-2.64.49-2.76,2.13S347.58,261.18,349.1,261.39Z"/><path class="cls-14" d="M357.25,268.09c4.41-5.15,4.59-9.77,2.87-14.83a35.37,35.37,0,0,1,11.12,3.93c2.07,1.07,2,2.22.37,3.75C367.86,264.37,363.43,266.35,357.25,268.09Z"/><path class="cls-14" d="M241.59,238.19c-5.15-.36-10.29-.74-15.43-1.07-2.29-.15-1.42-1.64-1.31-2.85.13-1.43.35-2.77,2.31-2.13,4.9,1.6,9.78,3.26,14.67,4.89Z"/><path class="cls-14" d="M256,253.45c-2.39-1.37-4.78-2.73-7.16-4.12-.76-.45-2.12-.69-1.29-2,.54-.85,1.49-.54,2.19-.07C252.23,248.88,255.2,250,256,253.45Z"/><path class="cls-16" d="M422.65,331.64l1.08-.26-.18,1.08C423.26,332.19,423,331.91,422.65,331.64Z"/><path class="cls-13" d="M51.51,372.7c3.37-15.17,10.79-28.19,21.63-41.05-2.32,15-4.28,28.54-3.36,42.31.13,6.37-.3,12.78,1.4,19l0,1c3,22,10.92,41.47,28.24,56.26.94.81,2.38,1.4,2.14,3.09l.08,0C82.16,441.7,73,423.25,68.09,402.1c-1.32-5.64-2.19-11.4-3.27-17.1l-.06-4c-.06-.76-.13-1.51-.19-2.26V356.64C59.62,361.05,55.74,369.91,54,379l-.27,1.52A2.3,2.3,0,0,0,53.2,383c-.6,1.95-1.26,3.88-1,6l-.05,2-.32,6.31c-1.55-.83-.52-2.34-1.11-3.33l-.4-1.67A73.06,73.06,0,0,1,51.51,372.7Z"/><path class="cls-13" d="M251.55,100.07a71.12,71.12,0,0,1,32.68-16.84c12.39-2.69,24.32-.37,36.3,2.58-13.13-9.53-28.17-9.59-43.9-8.76,25.09-9.09,59.49.63,66.87,31.23C315.18,79.86,284.06,82.52,251.55,100.07Z"/><path class="cls-13" d="M176,78c-4.62,8.8-10.09,17.14-13.64,26.52a176.52,176.52,0,0,0-10.44,42.26c-1.41,12.06-1.1,24.14-1.42,36.32-4.66-13.07-8.34-26.36-9.72-40.4.7.16,1.12.12,1.27.3,1.15,1.36,1.88,4,3.7,3.57s1.11-3.06,1.46-4.79C151.52,120,158.31,99.21,172,81.26c1.05-1.38,1.79-3.33,4.08-3.21Z"/><path class="cls-13" d="M399.19,105.29c-6,1.74-10.95,2.51-15.33,4.95-.67.38-1.57,1-1.68,1.59-.27,1.45,1.18,1.29,2,1.52,9.39,2.51,15.25,8.78,19,17.44.48,1.09.78,1.75-.16,2.5s-1.44-.23-1.78-.84c-7.27-12.91-18.53-17.87-33.11-16.3C372.17,109,384,104.71,399.19,105.29Z"/><path class="cls-13" d="M179,74c-.81,1.47-1.23,3.24-3,4l.08.07c-.15-2.18,1.05-3.37,3-4Z"/><path class="cls-13" d="M180.89,70.94c-.28.69-.56,1.38-.85,2.07l.07.07L181,71Z"/><path class="cls-13" d="M179,74.05c0-.68.44-.94,1.07-1L180,73,179,74Z"/><path class="cls-13" d="M181.91,70l-1,1L181,71l1-1Z"/><path class="cls-13" d="M183,69l-1.06,1,.06,0,1-1Z"/><polygon class="cls-13" points="182.99 68.97 183.12 68.89 182.97 69 182.99 68.97"/><path class="cls-13" d="M291.64,397.79a64.8,64.8,0,0,1-27-6.09,125.89,125.89,0,0,1-32.55-22c-1.58-1.45-3.68-2.94-1.9-5.4,1.64-2.24,3.59-.63,5.37.09q54.41,22.22,108.79,0c1.8-.74,3.78-2.27,5.37-.06,1.75,2.43-.31,4-1.93,5.4-13.59,12-28.22,22.3-46.24,26.58A95.68,95.68,0,0,1,291.64,397.79Zm38-22.08c-26.74,7.37-53.5,7-80.27.05C281.5,396.72,310.21,396.66,329.67,375.71Z"/><path class="cls-13" d="M289.93,417.45a44,44,0,0,1-20.21-4.78c-1.83-.93-4.53-1.83-3.19-4.68s3.49-1.46,5.51-.48c12,5.81,24,5.85,36-.08,2.05-1,4.2-2.17,5.45.68,1.12,2.54-1.19,3.47-2.93,4.38A44,44,0,0,1,289.93,417.45Z"/><path class="cls-13" d="M289.4,352.4a14.39,14.39,0,0,1-9.14-3.41c-2.3-1.93-4.57-3.81-8-3.3A2.5,2.5,0,0,1,269.4,343a3,3,0,0,1,2.81-3c4-.69,7.1,1.13,10.1,3.32,6.6,4.84,8.84,4.84,15.42,0,2.7-2,5.54-3.68,9.1-3.43,2,.15,3.75.92,3.67,3.16-.07,1.94-1.54,2.86-3.49,2.63-3-.35-5,1.4-7,3.13A14.85,14.85,0,0,1,289.4,352.4Z"/><path class="cls-13" d="M289.66,369.24a22.64,22.64,0,0,1-8.73-1.52c-1.78-.7-2.72-2-2-3.89a2.61,2.61,0,0,1,3.67-1.53,21.12,21.12,0,0,0,15,0,2.53,2.53,0,0,1,3.55,1.71,2.75,2.75,0,0,1-1.79,3.59A22.47,22.47,0,0,1,289.66,369.24Z"/><path class="cls-13" d="M262.91,333.49c-.56,3.52,0,6.6,3.11,8.89,1.61,1.19,2.68,2.69.91,4.58s-3.35.75-4.82-.44c-4.48-3.61-5.77-8.44-4.84-13.88.37-2.15.61-5.24,4-4.53C264.41,328.78,263.13,331.44,262.91,333.49Z"/><path class="cls-13" d="M323,335.1c0,4.86-1.63,8.7-5.3,11.57-1.55,1.2-3.2,2-4.81.13-1.47-1.74-.57-3.19.89-4.23,3.3-2.38,3.85-5.61,3.27-9.31-.33-2.08-1.35-4.68,1.89-5.2,3.06-.48,3.17,2.33,3.76,4.31A13.37,13.37,0,0,1,323,335.1Z"/><path class="cls-13" d="M46.11,344.05c-.8-.46-.55-1,0-1.48a.93.93,0,0,1,.76,0A1,1,0,0,1,46,344Z"/><path class="cls-13" d="M233.2,258.79a2.31,2.31,0,0,1-2.38,2.58c-1.49.09-2.65-.56-2.78-2.16s.88-2.44,2.39-2.58A2.31,2.31,0,0,1,233.2,258.79Z"/><path class="cls-13" d="M349.1,261.4c-1.52-.22-2.45-1-2.33-2.63s1.26-2.25,2.76-2.13a2.26,2.26,0,0,1,2.35,2.59C351.74,260.77,350.63,261.45,349.1,261.4Z"/><path class="cls-17" d="M329.67,375.71c-19.46,21-48.17,21-80.27.05C276.17,382.74,302.93,383.08,329.67,375.71Z"/><path class="cls-13" d="M422.65,331.64c-6,1.72-8.89,5.52-10.1,11.84-2.34,12.25-5.69,24.3-8.52,36.45a70.89,70.89,0,0,1-14.78,29.13,208.61,208.61,0,0,1-67.09,53.52c-27.56,13.94-55,9.26-79.91-9l-27.54-20.18c4.46,16.47,13.56,27.28,28.42,33.52-5-.44-10.13-.64-15.12-1.41-3.31-.5-3.94.28-3.61,3.54,1.22,12-.49,23.26-8.62,32.82-6.48,7.62-15.1,11.19-24.55,13.27-9,2-18.24,1.61-27.15,3.92-13.21,3.43-25,9.12-33.38,20.39-4.52,6.08-15.73,29.24-18.4,25-3.85-6.08-3.13-10.72-3.25-13.86-.67-18.33,10.5-34,27-42.5.43-.22,1.15.13,2.69.35-5.61,4.34-10.36,8.42-14.31,13.29a48,48,0,0,0-9.24,16.92c-2.31,8.08-2.11,14.5.52,17.93,1.13-1.24,1-2.79,1.24-4.24a38.36,38.36,0,0,1,7-16.83c9.72-13.4,23.17-21,39-24.16,10.87-2.14,19.8-6.51,25.44-16.16,5.09-8.69,1.21-18.67-7.66-20.92-2.28-.58-3.38,0-2.42,2.32,1.42,3.53-.05,6.27-1.89,9.63-1.4-11.55-4.95-14.8-14.44-13.16a116.72,116.72,0,0,1-37.2.89c-8.43-1.25-16.71-3.26-25.34-7.77,2.85,0,4.71-.41,6.3.06,16.91,5,34.14,4.67,51.37,2.69,5.63-.65,11.23-1.41,16.83-.89,15.37,1.44,25.22,12.11,19.78,26.61-.4,1.05-1.32,2.45-.11,3.14s2.39-.35,3.45-1.31c9.11-8.15,11.56-18.12,8.79-29.85-1.25-5.3-3.83-8.46-9.1-10.46-7.75-2.94-14.56-7.67-21.12-14.2,6.75,0,10.08,6.16,17.09,5.92-14-14.56-20.88-31.43-21.94-51,.58.48,1.08.7,1.2,1,.45,1.23.78,2.51,1.12,3.78,3.45,13.1,8.26,25.61,17,36.19,5.53,6.7,11.74,12.65,21.23,15a20.09,20.09,0,0,0-1.27-2.42,30.7,30.7,0,0,0-2.24-2.6c-8.69-9.12-13.56-19.75-14.07-32.56-.53-13.66,1.86-26.93,4-40.28,3.48-23.25,3.58-46.69,3.59-70.14,2,5,1.8,10.12,2.16,15.21,1.61,23.27.21,46.38-3.11,69.47-1.5,10.46-3.2,21.07-1.23,31.71.53,2.88.15,6.33,3.55,8.3.59-5.37-.73-10.46-.16-15.66,2.09-19,4.21-37.93,7.22-56.82s3.65-38.08,3.22-57.25c-.52-23.49.14-46.91,4.43-70.1,2.26-6.66,3.13-13.65,5.46-20.34a145.44,145.44,0,0,1,17.51-35.15c13.1-19,30.12-33.7,52-41.93,7.05-2.65,13.88-6.42,22.11-6.39-.51.57-.67.89-.92,1-1.53.62-3.11,1.15-4.64,1.79-15.07,6.22-30,12.63-42.13,24-1,.44-2.65,1.27-2.13,2,1,1.35,2.12,0,3-.91,14.64-8.64,30.37-14.86,46.32-20.53,14.45-5.14,28.93-8.88,44.51-4.2,13.64,4.09,26.06,10.06,35.53,20.79,13.81,15.65,20,34.65,21.88,55A73.19,73.19,0,0,0,424.31,233c2.77,6.6,7,12.4,11.51,19.6-5.7-3.8-8.16-8.89-12.84-11.75,1.54,7.33,5.41,13.53,8.84,19.87,10.89,20.1,12.73,40.71,4.79,62.33-3.94,10.73-10.52,20.35-12.89,31.7-.58.6-1.26,1.38-.35,2,.56.37,1-.54,1.27-1.12,4.87-8.66,9.88-17.25,14.6-26a85.25,85.25,0,0,0,10.53-45.05c-.32-6.92-.67-6.94,5.43-4.91,2.66.89,4.1,1,3.32-2.67-.61-2.91-.46-6-.74-10.23,4.9,6.3,8,12.24,14,15.7-8.19-18.09-16.19-36.18-20.37-55.66-2.75-17.47-2.81-35.2-5.26-52.69-.21-1.48-.24-3-.5-4.46-2-11.79-4.18-23.58-7.86-35-4.75-14.71-9.42-29.56-19.08-42-11.19-14.45-30.56-17.28-43.1-6.27-1,.88-2.11,2.32-4.35,1.27,1.76-3.4,3.79-6.41,7.09-8.49,9.4-5.92,19.29-4.68,29.54-1.58-10.1-21.58-61.25-48.47-84-43.84,16.93,11.87,26.1,28.46,32.4,47.12,3.31-7.66.74-15-.41-23.59,4.79,5.86,4.43,12.34,6.88,17.87,12.87-12.67,19.69-14.79,27.48-8-7.62-1.1-13.86.71-18.57,6.07a52.43,52.43,0,0,0-11.85,21.54c-.85,3.3-1.85,6.66-4.52,9.65-1.57-11.1-3.47-21.7-7.43-31.83-8.87-22.67-24.1-38.32-48.36-44-17.55-4.14-35-2.1-52.4,1.09-2.19.41-4.52,1.71-7.18-.18,14.58-6.88,29.83-8,45.19-8.84a102.08,102.08,0,0,0-44.78,1.12c-19.83,4.73-36.78,14.94-52.41,27.63-11.61,9.42-22.6,19.65-31.06,32-14.43,21-23,44.68-29,69.34-4,16.59-6.33,33.48-8.42,50.4a288.63,288.63,0,0,1,11.36-80.15c-8.49,12.4-14.27,26-18.71,40.08-7.09,22.52-16.85,43.33-35.44,58.89C67.88,227,58.5,233.62,50.75,241.92c-10.09,10.83-18.59,22.88-24.14,36.75-.89,2.23-2.14,4.61-1.24,7.61A9.92,9.92,0,0,0,29,281.61c3.74-8.41,8.89-15.88,14.57-23.08C54,245.29,67.26,235.88,82.43,228.84c3.14-1.46,3.61-.78,2.82,2.22-.83,3.2-1.45,6.46-2.42,9.62-5.63,18.26-16.72,33.81-25.13,50.69-4,8-9.2,15.43-10.92,24.42-.5.62-2,1.13-1.18,1.94s1.53-.29,2-1.06c4.92-5.42,8.3-11.92,12.48-17.86,17.07-24.26,33.35-49,42-77.78,2.78,2.66-.59,5.36,0,8A154.12,154.12,0,0,1,95,250.29c-8.17,18.8-20.16,35.27-31.7,52-9.06,13.14-18,26.36-24,41.23-1.85,4.51-3,9.13-2.49,14.11,1.83-2.59,3-5.48,4.69-8,1.34-2,1.27-5.27,4.63-5.6L46,344c-3.76,9-6.17,18.22-5.74,28,.08,2.68.17,5.37.26,8.05l.34,2.2A37.54,37.54,0,0,0,43.09,394a2.83,2.83,0,0,0,.63,2.6c1.51,8.72,5.1,16.7,9,24.55,5.17,10.53,10.83,20.75,10.62,33.11-.07,4.27.65,12-5.34,16.64-1.13.89-1.7,1.61.09,2.31.66-.06,2.68-.76,5.07-1.15,4.71-.77,3.93,4.26,4,6.95.2,11.23-4.15,19.88-14.9,24.64-1.94.86-4.63,1.3-4.68,4.43,11,.23,21.1-2,29.1-10.58,2.51,17.79-4.18,31.2-20.46,42.48a12.36,12.36,0,0,0,3.19-.2c12.67-4.64,21.77-13.85,30-24.43,1.09,2.07.24,3.21-.38,4.32a55.82,55.82,0,0,1-17.14,19.05c-7.72,5.36-16.68,8-25.08,11.91-4.41,2-8.3,10.68-6.53,14.21-8-4.71-9.7-17.17-4.89-21.84s10.51-7.55,16.36-10.44c8.51-4.2,15.61-9.64,17-21.13C61.78,516,54.05,515,47.08,517.25c-6.25,2.06-8.94,7.08-10.14,13.13-.27,1.37-.34,2.79-.55,4.62-6.55-15.09-2.45-32,11.85-38.35,4.28-1.9,8.5-4.07,9.73-9.28,1.17-4.94.54-5.83-4.54-6.22-8.48-.66-15.86-3.59-21.36-10.38A12.28,12.28,0,0,1,31,469.1a5.08,5.08,0,0,1-.19-1.28c3.12.55,6.12,1.33,9.16,1.58,9,.77,14.14-3.56,15.26-12.6,1.19-9.62-2.53-18-6.64-26.23C42.32,418.06,34.7,406,31.38,392.38c-3.58-14.72-8.73-28.86-13.2-43.26C3.31,301.25,17,261.36,53.69,228.45c9.29-8.34,19.79-15.29,28.07-24.77,11.92-13.65,17.56-30.34,23.48-47.05,18.06-50.95,47.2-94.08,92.62-124.47,36.57-24.46,76-29.09,116.9-11.45,6.81,2.94,13.62,3.69,20.61,4.87,49.05,8.29,81,37.86,100.86,82,13,28.79,18.88,59.39,20.18,90.68.9,21.48,7.19,41.22,15,60.74,9.36,23.38,22.12,44.71,39.57,63l.09-.07c-3.46.25-5.84-2.16-8.53-3.64A167.23,167.23,0,0,1,477,301.38c3.07,15.64,3.27,30.24,2.38,45-3.66-19.11-6.74-38.43-20.92-54.48-1.23,6.7-2.11,12.63-3.43,18.48a98.47,98.47,0,0,1-12,28.93c-12.74,21.27-23.1,43.5-27.52,68.13a108.22,108.22,0,0,0-1.5,23.37c.06,1.78.5,3.61-.66,5.94-2.09-2.58-2.68-5.45-3.46-8.16-7.21-24.85-3.88-49.13,4.36-73,2.71-7.84,6.19-15.41,9.31-23.1l.18-1.08Zm-85.11-93.43c3-.16,6-.19,8.93-.51,18.31-2,36.2.19,53.87,5.13,3.72,1,5.12,2.88,5.07,6.68-.05,5.17-.24,9.91-3.3,14.64-4.41,6.85-4.21,15.3-6.08,23-5,20.55-15.91,31.21-35.9,34.54-23.05,3.84-37.89-2.93-50.25-22.78-4.17-6.7-7-14-9.62-21.33-2-5.65-5.74-8.71-10.33-8.68s-8.12,3.09-10.25,8.79c-1.1,3-2.15,5.95-3.4,8.85-10.63,24.6-24.13,38.95-52.56,35.48-3.3-.41-3.06,1.45-3.15,3.47a438.4,438.4,0,0,1-4.6,46.73c-1.67,11-3.78,22-4.18,33.19-.15,4.16.86,7.08,4.09,9.93a301.76,301.76,0,0,0,41.06,30.95c22.34,13.77,45.3,13.33,67.41-.77a309.22,309.22,0,0,0,37.13-27.89c15.8-13.8,27.63-29.68,31.37-51.24,3.29-19,9.11-37.53,12.88-56.45,5.25-26.31,3.57-53.11,3.9-79.72a171.31,171.31,0,0,0-3.7-38.24C399,159.88,380,140.9,349.06,135.49a38.31,38.31,0,0,0-17.73.83,331,331,0,0,0-42.17,15.39c-29.65,13.2-52.35,32.77-60.6,65.8-1,4,0,4.83,3.48,5.38a86.69,86.69,0,0,1,20.18,5.5c2.86,1.2,5.53,2.88,5.52,6.39s-3,3.86-5.47,4.79c-.14.06-.08.61-.11.89,4.6,1.45,9.17,2.95,13.77,4.32,1,.31,2.1,1.26,3.3.38,2.93-2.16,4.62.07,6.28,1.89,6.66,7.31,17.52,9.24,25.2,3.48,4-3,6.49-8.16,12.76-5.56.23.1.62-.18.94-.28,4.37-1.37,8.73-2.75,13.11-4.11-1.92-2-5.81-2.55-5.29-6.38s3.84-5.13,7-6.38c.92-.37,1.86-.7,2.81-1,12.26-4,24.92-6.09,37.66-7.44,7.55-.8,13.88,2.74,19.18,8,.69.7,1.59,1.47.87,2.54s-1.78.53-2.64,0c-4.42-2.61-9.27-2.46-14.09-2.08C360.61,228.87,349.15,233.32,337.54,238.21Zm30.55,33.54c-1.48,4.85-3.15,6.75-6.32,1.52-1.16-1.91-3.42-2.08-5.8-2-15,.52-20.86-6.13-17.41-18.39a34,34,0,0,0-10.9,3.6c-1.45.74-3.51,1.27-3.53,3.14,0,2.15,1.95,2.86,3.77,3.37,1,.27,2.17.51,1.77,1.82-.45,1.5-1.83,1.15-3,.89-2.44-.55-4.2-2.88-6.84-2.82-4.09.1-3.36-1.64-1.48-3.72A45,45,0,0,1,331,249.51c.76-.4,2.36-.45,1.82-1.85-.68-1.74-1.86-.53-2.85-.12-3.89,1.6-6.68,7.56-12.13,3.07-.05-.05-.28.15-.44.19-4.91,1.2-11.08,8.13-11.16,13,0,2.27,1.14,4.55,1.16,6.83.17,16,6.7,29.06,18.86,39,14.5,11.84,43,9.95,54.67-3.75,11.42-13.35,10.95-29.54,9.62-46.17-2.68,1.21-4.68,2-6.56,3-2.25,1.22-2.2,4.57-4.88,5.69-.23.09,2.15,4-.11,5.06s-2.3-2.83-4.26-3.38a3.54,3.54,0,0,0-.92,0C372.77,275.35,372.75,275.36,368.09,271.75ZM241.5,252.9c2.59,9.49-.82,16.45-8.57,17.82a29,29,0,0,1-8.34.53c-3-.36-3.71.63-3.69,3.41.09,13,.06,26,0,39,0,1.91.25,3.08,2.57,3.32,12.87,1.32,24.55-1,34.07-10.51,8.72-8.7,13.33-19.54,15.11-31.41.54-3.64,1.36-7.49,1.09-11.23-.33-4.59-3.49-7.57-6.72-10.65-3.9-3.72-7.19-.91-11.84.09,2.69,2.43,4.95,4.33,7,6.41,1.11,1.11,2,3.11-.5,3.1-3,0-4.92,1.84-7.4,2.64-1.24.4-2.84,1.24-3.53-.36-.81-1.92,1.11-1.81,2.27-2.22,1.44-.51,2.9-1.25,3.07-2.94.19-1.9-1.58-2.35-2.84-3A33,33,0,0,0,241.5,252.9ZM74.27,242.69c-30.82,13.4-56.94,71.32-44.7,98.36C37.21,305,58.93,276,74.27,242.69Zm344.28,76.92C431.8,309.5,436.9,278.4,426,270.83c2.55,6,1.73,11.64.48,17.31-.8,3.63-3.72,6.37-4.43,9.91C420.66,305.17,419.7,312.39,418.55,319.61ZM196.33,503.79c4,1.08,6.75-1.32,9.55-3.33,11.57-8.29,12.47-24.38,9.67-36.29-.59-2.53-3.29-3.31-5.17-2.86-2.81.67-.74,3.12-.37,4.45,3.26,11.83,1,22.16-7.36,31.32C200.6,499.33,197.38,500.55,196.33,503.79Zm35.07-251.5c-7.12,0-9.15,1.53-9.11,6.77a8.69,8.69,0,0,0,8.56,8.55,8.85,8.85,0,0,0,8.67-8.52C239.55,254.33,237.1,252.28,231.4,252.29Zm118.13,0c-6.34-.06-8.7,1.69-8.86,6.55a8.71,8.71,0,0,0,8.4,8.71,8.51,8.51,0,0,0,8.7-8.29C357.9,254,356,252.36,349.53,252.31Zm7.72,15.78c6.18-1.74,10.61-3.72,14.36-7.15,1.67-1.53,1.7-2.68-.37-3.75a35.37,35.37,0,0,0-11.12-3.93C361.84,258.32,361.66,262.94,357.25,268.09Zm-115.66-29.9.24-1.16c-4.89-1.63-9.77-3.29-14.67-4.89-2-.64-2.18.7-2.31,2.13-.11,1.21-1,2.7,1.31,2.85C231.3,237.45,236.44,237.83,241.59,238.19ZM256,253.45c-.82-3.49-3.79-4.57-6.26-6.22-.7-.47-1.65-.78-2.19.07-.83,1.34.53,1.58,1.29,2C251.24,250.72,253.63,252.08,256,253.45ZM421.35,239.7a5.19,5.19,0,0,0,.82.56c.84.36.73-.32.63-.71a.91.91,0,0,0-.74-.4C421.81,239.18,421.59,239.5,421.35,239.7Z"/></svg>